<svg width="24" height="24" viewBox="0 0 24 24" fill="none" xmlns="http://www.w3.org/2000/svg">
<path d="M0 2.66673C0 4.13952 1.19394 5.33346 2.66673 5.33346C4.13952 5.33346 5.33346 4.13952 5.33346 2.66673C5.33346 1.19394 4.13952 0 2.66673 0C1.19394 0 0 1.19394 0 2.66673Z" fill="#2C2726"/>
<path d="M0 11.9988C0 13.4716 1.19394 14.6655 2.66673 14.6655C4.13952 14.6655 5.33346 13.4716 5.33346 11.9988C5.33346 10.526 4.13952 9.33203 2.66673 9.33203C1.19394 9.33203 0 10.526 0 11.9988Z" fill="#2C2726"/>
<path d="M0 21.3347C0 22.8075 1.19394 24.0014 2.66673 24.0014C4.13952 24.0014 5.33346 22.8075 5.33346 21.3347C5.33346 19.8619 4.13952 18.668 2.66673 18.668C1.19394 18.668 0 19.8619 0 21.3347Z" fill="#2C2726"/>
<path d="M9.33398 2.66673C9.33398 4.13952 10.5279 5.33346 12.0007 5.33346C13.4735 5.33346 14.6674 4.13952 14.6674 2.66673C14.6674 1.19394 13.4735 0 12.0007 0C10.5279 0 9.33398 1.19394 9.33398 2.66673Z" fill="#2C2726"/>
<path d="M9.33398 11.9988C9.33398 13.4716 10.5279 14.6655 12.0007 14.6655C13.4735 14.6655 14.6674 13.4716 14.6674 11.9988C14.6674 10.526 13.4735 9.33203 12.0007 9.33203C10.5279 9.33203 9.33398 10.526 9.33398 11.9988Z" fill="#2C2726"/>
<path d="M9.33398 21.3308C9.33398 22.8036 10.5279 23.9975 12.0007 23.9975C13.4735 23.9975 14.6674 22.8036 14.6674 21.3308C14.6674 19.858 13.4735 18.6641 12.0007 18.6641C10.5279 18.6641 9.33398 19.858 9.33398 21.3308Z" fill="#2C2726"/>
<path d="M18.668 2.66673C18.668 4.13952 19.8619 5.33346 21.3347 5.33346C22.8075 5.33346 24.0014 4.13952 24.0014 2.66673C24.0014 1.19394 22.8075 0 21.3347 0C19.8619 0 18.668 1.19394 18.668 2.66673Z" fill="#2C2726"/>
<path d="M18.668 11.9988C18.668 13.4716 19.8619 14.6655 21.3347 14.6655C22.8075 14.6655 24.0014 13.4716 24.0014 11.9988C24.0014 10.526 22.8075 9.33203 21.3347 9.33203C19.8619 9.33203 18.668 10.526 18.668 11.9988Z" fill="#2C2726"/>
<path d="M18.668 21.3308C18.668 22.8036 19.8619 23.9975 21.3347 23.9975C22.8075 23.9975 24.0014 22.8036 24.0014 21.3308C24.0014 19.858 22.8075 18.6641 21.3347 18.6641C19.8619 18.6641 18.668 19.858 18.668 21.3308Z" fill="#2C2726"/>
</svg>
