<svg width="82" height="82" viewBox="0 0 82 82" fill="none" xmlns="http://www.w3.org/2000/svg">
<path d="M50.3686 15.375H70.7763C72.2007 15.3749 73.6094 15.6716 74.9127 16.2462C76.216 16.8208 77.3852 17.6608 78.3457 18.7125C79.3063 19.7642 80.0371 21.0046 80.4916 22.3544C80.9461 23.7043 81.1142 25.1341 80.9853 26.5526L77.7207 62.4276C77.4893 64.9743 76.3143 67.3425 74.4264 69.0673C72.5385 70.7922 70.074 71.749 67.5168 71.75H14.4782C11.921 71.749 9.45657 70.7922 7.56866 69.0673C5.68075 67.3425 4.50575 64.9743 4.27432 62.4276L1.0097 26.5526C0.791302 24.1786 1.41147 21.8032 2.76245 19.8389L2.56257 15.375C2.56257 12.6565 3.64248 10.0494 5.56473 8.12716C7.48698 6.20491 10.0941 5.125 12.8126 5.125H31.6316C34.3498 5.12558 36.9565 6.20587 38.8783 8.12825L43.1218 12.3718C45.0436 14.2941 47.6503 15.3744 50.3686 15.375V15.375ZM7.71832 15.99C8.81507 15.5902 9.99382 15.375 11.2238 15.375H38.8783L35.2549 11.7516C34.294 10.7904 32.9907 10.2503 31.6316 10.25H12.8126C11.47 10.2498 10.181 10.7763 9.22265 11.7165C8.26427 12.6567 7.71308 13.9353 7.68757 15.2776L7.71832 15.99V15.99Z" fill="#E9ECEF"/>
</svg>
