<svg width="27" height="24" viewBox="0 0 27 24" fill="none" xmlns="http://www.w3.org/2000/svg">
<path d="M26.0357 0H0.964286C0.708541 0 0.463271 0.101142 0.282433 0.281177C0.101594 0.461211 0 0.70539 0 0.959997V17.28C0 17.5346 0.101594 17.7787 0.282433 17.9588C0.463271 18.1388 0.708541 18.24 0.964286 18.24H3.93429L1.11857 22.5119C1.00077 22.6892 0.945387 22.9003 0.961093 23.1123C0.976798 23.3242 1.06271 23.525 1.20536 23.6831C1.2966 23.7838 1.40822 23.8641 1.53288 23.9187C1.65753 23.9733 1.79239 24.001 1.92857 23.9999C2.07985 24.0017 2.22912 23.9654 2.3625 23.8943L13.7314 18.24H26.0357C26.2915 18.24 26.5367 18.1388 26.7176 17.9588C26.8984 17.7787 27 17.5346 27 17.28V0.959997C27 0.70539 26.8984 0.461211 26.7176 0.281177C26.5367 0.101142 26.2915 0 26.0357 0ZM25.0714 16.32H13.5C13.349 16.3209 13.2004 16.357 13.0661 16.4256L4.69607 20.5919L6.52821 17.808C6.61285 17.662 6.6574 17.4965 6.6574 17.328C6.6574 17.1594 6.61285 16.9939 6.52821 16.848C6.45195 16.6967 6.33685 16.5681 6.1946 16.4754C6.05235 16.3827 5.888 16.3291 5.71821 16.32H1.92857V1.91999H25.0714V16.32ZM16.2 10.0704L15.3418 12.6816C15.2781 12.8743 15.2774 13.0822 15.3397 13.2754C15.4021 13.4685 15.5244 13.6371 15.6889 13.7568C15.8541 13.8769 16.0533 13.9417 16.2579 13.9417C16.4624 13.9417 16.6616 13.8769 16.8268 13.7568L19.0639 12.144L21.2914 13.7568C21.4566 13.8769 21.6558 13.9417 21.8604 13.9417C22.0649 13.9417 22.2641 13.8769 22.4293 13.7568C22.5939 13.6371 22.7161 13.4685 22.7785 13.2754C22.8408 13.0822 22.8401 12.8743 22.7764 12.6816L21.9279 10.0704L24.1554 8.45758C24.3207 8.33844 24.4437 8.17016 24.5069 7.97697C24.57 7.78377 24.5699 7.57561 24.5067 7.38245C24.4434 7.18929 24.3203 7.02109 24.1549 6.90204C23.9895 6.783 23.7905 6.71925 23.5864 6.71998H20.8286L19.98 4.10879C19.919 3.91314 19.7967 3.74206 19.631 3.62057C19.4653 3.49907 19.2649 3.43353 19.0591 3.43353C18.8533 3.43353 18.6529 3.49907 18.4872 3.62057C18.3216 3.74206 18.1993 3.91314 18.1382 4.10879L17.2896 6.71998H14.5318C14.3277 6.71925 14.1287 6.783 13.9633 6.90204C13.7979 7.02109 13.6748 7.18929 13.6115 7.38245C13.5483 7.57561 13.5482 7.78377 13.6114 7.97697C13.6745 8.17016 13.7976 8.33844 13.9629 8.45758L16.2 10.0704ZM17.9936 8.63998C18.1969 8.63983 18.395 8.57569 18.5595 8.45672C18.7241 8.33775 18.8466 8.17005 18.9096 7.97758L19.0639 7.50718L19.2086 7.97758C19.274 8.17807 19.4038 8.35157 19.5781 8.47128C19.7524 8.591 19.9614 8.65028 20.1729 8.63998H20.6646L20.2596 8.92798C20.0951 9.04767 19.9728 9.2162 19.9105 9.40938C19.8481 9.60255 19.8488 9.81043 19.9125 10.0032L20.0668 10.4736L19.6618 10.176C19.4975 10.058 19.3002 9.99457 19.0977 9.99457C18.8952 9.99457 18.6978 10.058 18.5336 10.176L18.1286 10.464L18.2829 10.0032C18.3466 9.81043 18.3473 9.60255 18.2849 9.40938C18.2225 9.2162 18.1003 9.04767 17.9357 8.92798L17.5404 8.63998H17.9936ZM3.85714 8.63998C3.85714 8.38537 3.95874 8.14119 4.13958 7.96116C4.32041 7.78112 4.56568 7.67998 4.82143 7.67998H11.5714C11.8272 7.67998 12.0724 7.78112 12.2533 7.96116C12.4341 8.14119 12.5357 8.38537 12.5357 8.63998C12.5357 8.89458 12.4341 9.13876 12.2533 9.3188C12.0724 9.49883 11.8272 9.59997 11.5714 9.59997H4.82143C4.56568 9.59997 4.32041 9.49883 4.13958 9.3188C3.95874 9.13876 3.85714 8.89458 3.85714 8.63998ZM3.85714 12.48C3.85714 12.2254 3.95874 11.9812 4.13958 11.8011C4.32041 11.6211 4.56568 11.52 4.82143 11.52H11.5714C11.8272 11.52 12.0724 11.6211 12.2533 11.8011C12.4341 11.9812 12.5357 12.2254 12.5357 12.48C12.5357 12.7346 12.4341 12.9788 12.2533 13.1588C12.0724 13.3388 11.8272 13.44 11.5714 13.44H4.82143C4.56568 13.44 4.32041 13.3388 4.13958 13.1588C3.95874 12.9788 3.85714 12.7346 3.85714 12.48Z" fill="#FFCB56"/>
</svg>
